<?xml version="1.0" encoding="utf-8"?>
<svg xmlns="http://www.w3.org/2000/svg" xmlns:xlink="http://www.w3.org/1999/xlink" width="528" height="336" viewBox="0 0 2112 1344">
<defs>
  <clipPath id="clip050">
    <rect x="0" y="0" width="2112" height="1344"/>
  </clipPath>
</defs>
<path clip-path="url(#clip050)" d="M0 1344 L2112 1344 L2112 0 L0 0  Z" fill="#ffffff" fill-rule="evenodd" fill-opacity="1"/>
<defs>
  <clipPath id="clip051">
    <rect x="422" y="0" width="1479" height="1344"/>
  </clipPath>
</defs>
<path clip-path="url(#clip050)" d="M244.502 1234.58 L2064.76 1234.58 L2064.76 120.723 L244.502 120.723  Z" fill="#ffffff" fill-rule="evenodd" fill-opacity="1"/>
<defs>
  <clipPath id="clip052">
    <rect x="244" y="120" width="1821" height="1115"/>
  </clipPath>
</defs>
<polyline clip-path="url(#clip052)" style="stroke:#000000; stroke-linecap:round; stroke-linejoin:round; stroke-width:2; stroke-opacity:0.1; fill:none" points="296.019,1234.58 296.019,120.723 "/>
<polyline clip-path="url(#clip052)" style="stroke:#000000; stroke-linecap:round; stroke-linejoin:round; stroke-width:2; stroke-opacity:0.1; fill:none" points="725.324,1234.58 725.324,120.723 "/>
<polyline clip-path="url(#clip052)" style="stroke:#000000; stroke-linecap:round; stroke-linejoin:round; stroke-width:2; stroke-opacity:0.1; fill:none" points="1154.63,1234.58 1154.63,120.723 "/>
<polyline clip-path="url(#clip052)" style="stroke:#000000; stroke-linecap:round; stroke-linejoin:round; stroke-width:2; stroke-opacity:0.1; fill:none" points="1583.93,1234.58 1583.93,120.723 "/>
<polyline clip-path="url(#clip052)" style="stroke:#000000; stroke-linecap:round; stroke-linejoin:round; stroke-width:2; stroke-opacity:0.1; fill:none" points="2013.24,1234.58 2013.24,120.723 "/>
<polyline clip-path="url(#clip050)" style="stroke:#000000; stroke-linecap:round; stroke-linejoin:round; stroke-width:4; stroke-opacity:1; fill:none" points="244.502,1234.58 2064.76,1234.58 "/>
<polyline clip-path="url(#clip050)" style="stroke:#000000; stroke-linecap:round; stroke-linejoin:round; stroke-width:4; stroke-opacity:1; fill:none" points="296.019,1234.58 296.019,1215.68 "/>
<polyline clip-path="url(#clip050)" style="stroke:#000000; stroke-linecap:round; stroke-linejoin:round; stroke-width:4; stroke-opacity:1; fill:none" points="725.324,1234.58 725.324,1215.68 "/>
<polyline clip-path="url(#clip050)" style="stroke:#000000; stroke-linecap:round; stroke-linejoin:round; stroke-width:4; stroke-opacity:1; fill:none" points="1154.63,1234.58 1154.63,1215.68 "/>
<polyline clip-path="url(#clip050)" style="stroke:#000000; stroke-linecap:round; stroke-linejoin:round; stroke-width:4; stroke-opacity:1; fill:none" points="1583.93,1234.58 1583.93,1215.68 "/>
<polyline clip-path="url(#clip050)" style="stroke:#000000; stroke-linecap:round; stroke-linejoin:round; stroke-width:4; stroke-opacity:1; fill:none" points="2013.24,1234.58 2013.24,1215.68 "/>
<path clip-path="url(#clip050)" d="M258.322 1263.19 Q254.711 1263.19 252.882 1266.76 Q251.077 1270.3 251.077 1277.43 Q251.077 1284.54 252.882 1288.1 Q254.711 1291.64 258.322 1291.64 Q261.956 1291.64 263.762 1288.1 Q265.591 1284.54 265.591 1277.43 Q265.591 1270.3 263.762 1266.76 Q261.956 1263.19 258.322 1263.19 M258.322 1259.49 Q264.132 1259.49 267.188 1264.1 Q270.266 1268.68 270.266 1277.43 Q270.266 1286.16 267.188 1290.76 Q264.132 1295.35 258.322 1295.35 Q252.512 1295.35 249.433 1290.76 Q246.378 1286.16 246.378 1277.43 Q246.378 1268.68 249.433 1264.1 Q252.512 1259.49 258.322 1259.49 Z" fill="#000000" fill-rule="nonzero" fill-opacity="1" /><path clip-path="url(#clip050)" d="M278.484 1288.8 L283.368 1288.8 L283.368 1294.67 L278.484 1294.67 L278.484 1288.8 Z" fill="#000000" fill-rule="nonzero" fill-opacity="1" /><path clip-path="url(#clip050)" d="M303.553 1263.19 Q299.942 1263.19 298.114 1266.76 Q296.308 1270.3 296.308 1277.43 Q296.308 1284.54 298.114 1288.1 Q299.942 1291.64 303.553 1291.64 Q307.188 1291.64 308.993 1288.1 Q310.822 1284.54 310.822 1277.43 Q310.822 1270.3 308.993 1266.76 Q307.188 1263.19 303.553 1263.19 M303.553 1259.49 Q309.363 1259.49 312.419 1264.1 Q315.498 1268.68 315.498 1277.43 Q315.498 1286.16 312.419 1290.76 Q309.363 1295.35 303.553 1295.35 Q297.743 1295.35 294.664 1290.76 Q291.609 1286.16 291.609 1277.43 Q291.609 1268.68 294.664 1264.1 Q297.743 1259.49 303.553 1259.49 Z" fill="#000000" fill-rule="nonzero" fill-opacity="1" /><path clip-path="url(#clip050)" d="M333.715 1263.19 Q330.104 1263.19 328.275 1266.76 Q326.47 1270.3 326.47 1277.43 Q326.47 1284.54 328.275 1288.1 Q330.104 1291.64 333.715 1291.64 Q337.349 1291.64 339.155 1288.1 Q340.984 1284.54 340.984 1277.43 Q340.984 1270.3 339.155 1266.76 Q337.349 1263.19 333.715 1263.19 M333.715 1259.49 Q339.525 1259.49 342.581 1264.1 Q345.66 1268.68 345.66 1277.43 Q345.66 1286.16 342.581 1290.76 Q339.525 1295.35 333.715 1295.35 Q327.905 1295.35 324.826 1290.76 Q321.771 1286.16 321.771 1277.43 Q321.771 1268.68 324.826 1264.1 Q327.905 1259.49 333.715 1259.49 Z" fill="#000000" fill-rule="nonzero" fill-opacity="1" /><path clip-path="url(#clip050)" d="M688.125 1263.19 Q684.514 1263.19 682.685 1266.76 Q680.88 1270.3 680.88 1277.43 Q680.88 1284.54 682.685 1288.1 Q684.514 1291.64 688.125 1291.64 Q691.759 1291.64 693.565 1288.1 Q695.393 1284.54 695.393 1277.43 Q695.393 1270.3 693.565 1266.76 Q691.759 1263.19 688.125 1263.19 M688.125 1259.49 Q693.935 1259.49 696.991 1264.1 Q700.069 1268.68 700.069 1277.43 Q700.069 1286.16 696.991 1290.76 Q693.935 1295.35 688.125 1295.35 Q682.315 1295.35 679.236 1290.76 Q676.181 1286.16 676.181 1277.43 Q676.181 1268.68 679.236 1264.1 Q682.315 1259.49 688.125 1259.49 Z" fill="#000000" fill-rule="nonzero" fill-opacity="1" /><path clip-path="url(#clip050)" d="M708.287 1288.8 L713.171 1288.8 L713.171 1294.67 L708.287 1294.67 L708.287 1288.8 Z" fill="#000000" fill-rule="nonzero" fill-opacity="1" /><path clip-path="url(#clip050)" d="M727.384 1290.74 L743.703 1290.74 L743.703 1294.67 L721.759 1294.67 L721.759 1290.74 Q724.421 1287.99 729.004 1283.36 Q733.611 1278.7 734.791 1277.36 Q737.037 1274.84 737.916 1273.1 Q738.819 1271.34 738.819 1269.65 Q738.819 1266.9 736.875 1265.16 Q734.953 1263.42 731.852 1263.42 Q729.652 1263.42 727.199 1264.19 Q724.768 1264.95 721.99 1266.5 L721.99 1261.78 Q724.815 1260.65 727.268 1260.07 Q729.722 1259.49 731.759 1259.49 Q737.129 1259.49 740.324 1262.17 Q743.518 1264.86 743.518 1269.35 Q743.518 1271.48 742.708 1273.4 Q741.921 1275.3 739.814 1277.89 Q739.236 1278.56 736.134 1281.78 Q733.032 1284.98 727.384 1290.74 Z" fill="#000000" fill-rule="nonzero" fill-opacity="1" /><path clip-path="url(#clip050)" d="M753.564 1260.11 L771.921 1260.11 L771.921 1264.05 L757.847 1264.05 L757.847 1272.52 Q758.865 1272.17 759.884 1272.01 Q760.902 1271.83 761.921 1271.83 Q767.708 1271.83 771.087 1275 Q774.467 1278.17 774.467 1283.59 Q774.467 1289.17 770.995 1292.27 Q767.523 1295.35 761.203 1295.35 Q759.027 1295.35 756.759 1294.98 Q754.513 1294.61 752.106 1293.86 L752.106 1289.17 Q754.189 1290.3 756.412 1290.86 Q758.634 1291.41 761.111 1291.41 Q765.115 1291.41 767.453 1289.3 Q769.791 1287.2 769.791 1283.59 Q769.791 1279.98 767.453 1277.87 Q765.115 1275.76 761.111 1275.76 Q759.236 1275.76 757.361 1276.18 Q755.509 1276.6 753.564 1277.48 L753.564 1260.11 Z" fill="#000000" fill-rule="nonzero" fill-opacity="1" /><path clip-path="url(#clip050)" d="M1116.93 1263.19 Q1113.32 1263.19 1111.49 1266.76 Q1109.69 1270.3 1109.69 1277.43 Q1109.69 1284.54 1111.49 1288.1 Q1113.32 1291.64 1116.93 1291.64 Q1120.57 1291.64 1122.37 1288.1 Q1124.2 1284.54 1124.2 1277.43 Q1124.2 1270.3 1122.37 1266.76 Q1120.57 1263.19 1116.93 1263.19 M1116.93 1259.49 Q1122.74 1259.49 1125.8 1264.1 Q1128.88 1268.68 1128.88 1277.43 Q1128.88 1286.16 1125.8 1290.76 Q1122.74 1295.35 1116.93 1295.35 Q1111.12 1295.35 1108.04 1290.76 Q1104.99 1286.16 1104.99 1277.43 Q1104.99 1268.68 1108.04 1264.1 Q1111.12 1259.49 1116.93 1259.49 Z" fill="#000000" fill-rule="nonzero" fill-opacity="1" /><path clip-path="url(#clip050)" d="M1137.09 1288.8 L1141.98 1288.8 L1141.98 1294.67 L1137.09 1294.67 L1137.09 1288.8 Z" fill="#000000" fill-rule="nonzero" fill-opacity="1" /><path clip-path="url(#clip050)" d="M1152.21 1260.11 L1170.57 1260.11 L1170.57 1264.05 L1156.49 1264.05 L1156.49 1272.52 Q1157.51 1272.17 1158.53 1272.01 Q1159.55 1271.83 1160.57 1271.83 Q1166.35 1271.83 1169.73 1275 Q1173.11 1278.17 1173.11 1283.59 Q1173.11 1289.17 1169.64 1292.27 Q1166.17 1295.35 1159.85 1295.35 Q1157.67 1295.35 1155.4 1294.98 Q1153.16 1294.61 1150.75 1293.86 L1150.75 1289.17 Q1152.83 1290.3 1155.06 1290.86 Q1157.28 1291.41 1159.76 1291.41 Q1163.76 1291.41 1166.1 1289.3 Q1168.44 1287.2 1168.44 1283.59 Q1168.44 1279.98 1166.1 1277.87 Q1163.76 1275.76 1159.76 1275.76 Q1157.88 1275.76 1156.01 1276.18 Q1154.15 1276.6 1152.21 1277.48 L1152.21 1260.11 Z" fill="#000000" fill-rule="nonzero" fill-opacity="1" /><path clip-path="url(#clip050)" d="M1192.33 1263.19 Q1188.71 1263.19 1186.89 1266.76 Q1185.08 1270.3 1185.08 1277.43 Q1185.08 1284.54 1186.89 1288.1 Q1188.71 1291.64 1192.33 1291.64 Q1195.96 1291.64 1197.77 1288.1 Q1199.59 1284.54 1199.59 1277.43 Q1199.59 1270.3 1197.77 1266.76 Q1195.96 1263.19 1192.33 1263.19 M1192.33 1259.49 Q1198.14 1259.49 1201.19 1264.1 Q1204.27 1268.68 1204.27 1277.43 Q1204.27 1286.16 1201.19 1290.76 Q1198.14 1295.35 1192.33 1295.35 Q1186.52 1295.35 1183.44 1290.76 Q1180.38 1286.16 1180.38 1277.43 Q1180.38 1268.68 1183.44 1264.1 Q1186.52 1259.49 1192.33 1259.49 Z" fill="#000000" fill-rule="nonzero" fill-opacity="1" /><path clip-path="url(#clip050)" d="M1546.74 1263.19 Q1543.12 1263.19 1541.3 1266.76 Q1539.49 1270.3 1539.49 1277.43 Q1539.49 1284.54 1541.3 1288.1 Q1543.12 1291.64 1546.74 1291.64 Q1550.37 1291.64 1552.18 1288.1 Q1554 1284.54 1554 1277.43 Q1554 1270.3 1552.18 1266.76 Q1550.37 1263.19 1546.74 1263.19 M1546.74 1259.49 Q1552.55 1259.49 1555.6 1264.1 Q1558.68 1268.68 1558.68 1277.43 Q1558.68 1286.16 1555.6 1290.76 Q1552.55 1295.35 1546.74 1295.35 Q1540.93 1295.35 1537.85 1290.76 Q1534.79 1286.16 1534.79 1277.43 Q1534.79 1268.68 1537.85 1264.1 Q1540.93 1259.49 1546.74 1259.49 Z" fill="#000000" fill-rule="nonzero" fill-opacity="1" /><path clip-path="url(#clip050)" d="M1566.9 1288.8 L1571.78 1288.8 L1571.78 1294.67 L1566.9 1294.67 L1566.9 1288.8 Z" fill="#000000" fill-rule="nonzero" fill-opacity="1" /><path clip-path="url(#clip050)" d="M1580.79 1260.11 L1603.01 1260.11 L1603.01 1262.11 L1590.46 1294.67 L1585.58 1294.67 L1597.38 1264.05 L1580.79 1264.05 L1580.79 1260.11 Z" fill="#000000" fill-rule="nonzero" fill-opacity="1" /><path clip-path="url(#clip050)" d="M1612.17 1260.11 L1630.53 1260.11 L1630.53 1264.05 L1616.46 1264.05 L1616.46 1272.52 Q1617.48 1272.17 1618.49 1272.01 Q1619.51 1271.83 1620.53 1271.83 Q1626.32 1271.83 1629.7 1275 Q1633.08 1278.17 1633.08 1283.59 Q1633.08 1289.17 1629.61 1292.27 Q1626.13 1295.35 1619.81 1295.35 Q1617.64 1295.35 1615.37 1294.98 Q1613.12 1294.61 1610.72 1293.86 L1610.72 1289.17 Q1612.8 1290.3 1615.02 1290.86 Q1617.24 1291.41 1619.72 1291.41 Q1623.73 1291.41 1626.06 1289.3 Q1628.4 1287.2 1628.4 1283.59 Q1628.4 1279.98 1626.06 1277.87 Q1623.73 1275.76 1619.72 1275.76 Q1617.85 1275.76 1615.97 1276.18 Q1614.12 1276.6 1612.17 1277.48 L1612.17 1260.11 Z" fill="#000000" fill-rule="nonzero" fill-opacity="1" /><path clip-path="url(#clip050)" d="M1965.31 1290.74 L1972.95 1290.74 L1972.95 1264.37 L1964.64 1266.04 L1964.64 1261.78 L1972.9 1260.11 L1977.58 1260.11 L1977.58 1290.74 L1985.22 1290.74 L1985.22 1294.67 L1965.31 1294.67 L1965.31 1290.74 Z" fill="#000000" fill-rule="nonzero" fill-opacity="1" /><path clip-path="url(#clip050)" d="M1994.66 1288.8 L1999.55 1288.8 L1999.55 1294.67 L1994.66 1294.67 L1994.66 1288.8 Z" fill="#000000" fill-rule="nonzero" fill-opacity="1" /><path clip-path="url(#clip050)" d="M2019.73 1263.19 Q2016.12 1263.19 2014.29 1266.76 Q2012.49 1270.3 2012.49 1277.43 Q2012.49 1284.54 2014.29 1288.1 Q2016.12 1291.64 2019.73 1291.64 Q2023.37 1291.64 2025.17 1288.1 Q2027 1284.54 2027 1277.43 Q2027 1270.3 2025.17 1266.76 Q2023.37 1263.19 2019.73 1263.19 M2019.73 1259.49 Q2025.54 1259.49 2028.6 1264.1 Q2031.68 1268.68 2031.68 1277.43 Q2031.68 1286.16 2028.6 1290.76 Q2025.54 1295.35 2019.73 1295.35 Q2013.92 1295.35 2010.84 1290.76 Q2007.79 1286.16 2007.79 1277.43 Q2007.79 1268.68 2010.84 1264.1 Q2013.92 1259.49 2019.73 1259.49 Z" fill="#000000" fill-rule="nonzero" fill-opacity="1" /><path clip-path="url(#clip050)" d="M2049.89 1263.19 Q2046.28 1263.19 2044.45 1266.76 Q2042.65 1270.3 2042.65 1277.43 Q2042.65 1284.54 2044.45 1288.1 Q2046.28 1291.64 2049.89 1291.64 Q2053.53 1291.64 2055.33 1288.1 Q2057.16 1284.54 2057.16 1277.43 Q2057.16 1270.3 2055.33 1266.76 Q2053.53 1263.19 2049.89 1263.19 M2049.89 1259.49 Q2055.7 1259.49 2058.76 1264.1 Q2061.84 1268.68 2061.84 1277.43 Q2061.84 1286.16 2058.76 1290.76 Q2055.7 1295.35 2049.89 1295.35 Q2044.08 1295.35 2041.01 1290.76 Q2037.95 1286.16 2037.95 1277.43 Q2037.95 1268.68 2041.01 1264.1 Q2044.08 1259.49 2049.89 1259.49 Z" fill="#000000" fill-rule="nonzero" fill-opacity="1" /><polyline clip-path="url(#clip052)" style="stroke:#000000; stroke-linecap:round; stroke-linejoin:round; stroke-width:2; stroke-opacity:0.1; fill:none" points="244.502,1203.05 2064.76,1203.05 "/>
<polyline clip-path="url(#clip052)" style="stroke:#000000; stroke-linecap:round; stroke-linejoin:round; stroke-width:2; stroke-opacity:0.1; fill:none" points="244.502,940.353 2064.76,940.353 "/>
<polyline clip-path="url(#clip052)" style="stroke:#000000; stroke-linecap:round; stroke-linejoin:round; stroke-width:2; stroke-opacity:0.1; fill:none" points="244.502,677.651 2064.76,677.651 "/>
<polyline clip-path="url(#clip052)" style="stroke:#000000; stroke-linecap:round; stroke-linejoin:round; stroke-width:2; stroke-opacity:0.1; fill:none" points="244.502,414.949 2064.76,414.949 "/>
<polyline clip-path="url(#clip052)" style="stroke:#000000; stroke-linecap:round; stroke-linejoin:round; stroke-width:2; stroke-opacity:0.1; fill:none" points="244.502,152.247 2064.76,152.247 "/>
<polyline clip-path="url(#clip050)" style="stroke:#000000; stroke-linecap:round; stroke-linejoin:round; stroke-width:4; stroke-opacity:1; fill:none" points="244.502,1234.58 244.502,120.723 "/>
<polyline clip-path="url(#clip050)" style="stroke:#000000; stroke-linecap:round; stroke-linejoin:round; stroke-width:4; stroke-opacity:1; fill:none" points="244.502,1203.05 263.4,1203.05 "/>
<polyline clip-path="url(#clip050)" style="stroke:#000000; stroke-linecap:round; stroke-linejoin:round; stroke-width:4; stroke-opacity:1; fill:none" points="244.502,940.353 263.4,940.353 "/>
<polyline clip-path="url(#clip050)" style="stroke:#000000; stroke-linecap:round; stroke-linejoin:round; stroke-width:4; stroke-opacity:1; fill:none" points="244.502,677.651 263.4,677.651 "/>
<polyline clip-path="url(#clip050)" style="stroke:#000000; stroke-linecap:round; stroke-linejoin:round; stroke-width:4; stroke-opacity:1; fill:none" points="244.502,414.949 263.4,414.949 "/>
<polyline clip-path="url(#clip050)" style="stroke:#000000; stroke-linecap:round; stroke-linejoin:round; stroke-width:4; stroke-opacity:1; fill:none" points="244.502,152.247 263.4,152.247 "/>
<path clip-path="url(#clip050)" d="M125.485 1188.85 Q121.873 1188.85 120.045 1192.42 Q118.239 1195.96 118.239 1203.09 Q118.239 1210.2 120.045 1213.76 Q121.873 1217.3 125.485 1217.3 Q129.119 1217.3 130.924 1213.76 Q132.753 1210.2 132.753 1203.09 Q132.753 1195.96 130.924 1192.42 Q129.119 1188.85 125.485 1188.85 M125.485 1185.15 Q131.295 1185.15 134.35 1189.76 Q137.429 1194.34 137.429 1203.09 Q137.429 1211.82 134.35 1216.42 Q131.295 1221.01 125.485 1221.01 Q119.674 1221.01 116.596 1216.42 Q113.54 1211.82 113.54 1203.09 Q113.54 1194.34 116.596 1189.76 Q119.674 1185.15 125.485 1185.15 Z" fill="#000000" fill-rule="nonzero" fill-opacity="1" /><path clip-path="url(#clip050)" d="M145.646 1214.45 L150.531 1214.45 L150.531 1220.33 L145.646 1220.33 L145.646 1214.45 Z" fill="#000000" fill-rule="nonzero" fill-opacity="1" /><path clip-path="url(#clip050)" d="M170.716 1188.85 Q167.105 1188.85 165.276 1192.42 Q163.47 1195.96 163.47 1203.09 Q163.47 1210.2 165.276 1213.76 Q167.105 1217.3 170.716 1217.3 Q174.35 1217.3 176.156 1213.76 Q177.984 1210.2 177.984 1203.09 Q177.984 1195.96 176.156 1192.42 Q174.35 1188.85 170.716 1188.85 M170.716 1185.15 Q176.526 1185.15 179.581 1189.76 Q182.66 1194.34 182.66 1203.09 Q182.66 1211.82 179.581 1216.42 Q176.526 1221.01 170.716 1221.01 Q164.906 1221.01 161.827 1216.42 Q158.771 1211.82 158.771 1203.09 Q158.771 1194.34 161.827 1189.76 Q164.906 1185.15 170.716 1185.15 Z" fill="#000000" fill-rule="nonzero" fill-opacity="1" /><path clip-path="url(#clip050)" d="M200.878 1188.85 Q197.267 1188.85 195.438 1192.42 Q193.632 1195.96 193.632 1203.09 Q193.632 1210.2 195.438 1213.76 Q197.267 1217.3 200.878 1217.3 Q204.512 1217.3 206.317 1213.76 Q208.146 1210.2 208.146 1203.09 Q208.146 1195.96 206.317 1192.42 Q204.512 1188.85 200.878 1188.85 M200.878 1185.15 Q206.688 1185.15 209.743 1189.76 Q212.822 1194.34 212.822 1203.09 Q212.822 1211.82 209.743 1216.42 Q206.688 1221.01 200.878 1221.01 Q195.067 1221.01 191.989 1216.42 Q188.933 1211.82 188.933 1203.09 Q188.933 1194.34 191.989 1189.76 Q195.067 1185.15 200.878 1185.15 Z" fill="#000000" fill-rule="nonzero" fill-opacity="1" /><path clip-path="url(#clip050)" d="M126.48 926.151 Q122.869 926.151 121.04 929.716 Q119.235 933.258 119.235 940.387 Q119.235 947.494 121.04 951.059 Q122.869 954.6 126.48 954.6 Q130.114 954.6 131.92 951.059 Q133.748 947.494 133.748 940.387 Q133.748 933.258 131.92 929.716 Q130.114 926.151 126.48 926.151 M126.48 922.448 Q132.29 922.448 135.346 927.054 Q138.424 931.638 138.424 940.387 Q138.424 949.114 135.346 953.721 Q132.29 958.304 126.48 958.304 Q120.67 958.304 117.591 953.721 Q114.536 949.114 114.536 940.387 Q114.536 931.638 117.591 927.054 Q120.67 922.448 126.48 922.448 Z" fill="#000000" fill-rule="nonzero" fill-opacity="1" /><path clip-path="url(#clip050)" d="M146.642 951.753 L151.526 951.753 L151.526 957.633 L146.642 957.633 L146.642 951.753 Z" fill="#000000" fill-rule="nonzero" fill-opacity="1" /><path clip-path="url(#clip050)" d="M165.739 953.698 L182.058 953.698 L182.058 957.633 L160.114 957.633 L160.114 953.698 Q162.776 950.943 167.359 946.313 Q171.966 941.661 173.146 940.318 Q175.392 937.795 176.271 936.059 Q177.174 934.3 177.174 932.61 Q177.174 929.855 175.23 928.119 Q173.308 926.383 170.207 926.383 Q168.007 926.383 165.554 927.147 Q163.123 927.911 160.345 929.462 L160.345 924.739 Q163.17 923.605 165.623 923.026 Q168.077 922.448 170.114 922.448 Q175.484 922.448 178.679 925.133 Q181.873 927.818 181.873 932.309 Q181.873 934.438 181.063 936.36 Q180.276 938.258 178.169 940.85 Q177.591 941.522 174.489 944.739 Q171.387 947.934 165.739 953.698 Z" fill="#000000" fill-rule="nonzero" fill-opacity="1" /><path clip-path="url(#clip050)" d="M191.919 923.073 L210.276 923.073 L210.276 927.008 L196.202 927.008 L196.202 935.48 Q197.22 935.133 198.239 934.971 Q199.257 934.786 200.276 934.786 Q206.063 934.786 209.442 937.957 Q212.822 941.128 212.822 946.545 Q212.822 952.124 209.35 955.225 Q205.878 958.304 199.558 958.304 Q197.382 958.304 195.114 957.934 Q192.868 957.563 190.461 956.823 L190.461 952.124 Q192.544 953.258 194.767 953.813 Q196.989 954.369 199.466 954.369 Q203.47 954.369 205.808 952.262 Q208.146 950.156 208.146 946.545 Q208.146 942.934 205.808 940.827 Q203.47 938.721 199.466 938.721 Q197.591 938.721 195.716 939.137 Q193.864 939.554 191.919 940.434 L191.919 923.073 Z" fill="#000000" fill-rule="nonzero" fill-opacity="1" /><path clip-path="url(#clip050)" d="M125.485 663.45 Q121.873 663.45 120.045 667.014 Q118.239 670.556 118.239 677.686 Q118.239 684.792 120.045 688.357 Q121.873 691.899 125.485 691.899 Q129.119 691.899 130.924 688.357 Q132.753 684.792 132.753 677.686 Q132.753 670.556 130.924 667.014 Q129.119 663.45 125.485 663.45 M125.485 659.746 Q131.295 659.746 134.35 664.352 Q137.429 668.936 137.429 677.686 Q137.429 686.412 134.35 691.019 Q131.295 695.602 125.485 695.602 Q119.674 695.602 116.596 691.019 Q113.54 686.412 113.54 677.686 Q113.54 668.936 116.596 664.352 Q119.674 659.746 125.485 659.746 Z" fill="#000000" fill-rule="nonzero" fill-opacity="1" /><path clip-path="url(#clip050)" d="M145.646 689.051 L150.531 689.051 L150.531 694.931 L145.646 694.931 L145.646 689.051 Z" fill="#000000" fill-rule="nonzero" fill-opacity="1" /><path clip-path="url(#clip050)" d="M160.762 660.371 L179.119 660.371 L179.119 664.306 L165.045 664.306 L165.045 672.778 Q166.063 672.431 167.082 672.269 Q168.1 672.084 169.119 672.084 Q174.906 672.084 178.285 675.255 Q181.665 678.426 181.665 683.843 Q181.665 689.422 178.193 692.524 Q174.72 695.602 168.401 695.602 Q166.225 695.602 163.957 695.232 Q161.711 694.861 159.304 694.121 L159.304 689.422 Q161.387 690.556 163.609 691.111 Q165.832 691.667 168.308 691.667 Q172.313 691.667 174.651 689.561 Q176.989 687.454 176.989 683.843 Q176.989 680.232 174.651 678.125 Q172.313 676.019 168.308 676.019 Q166.433 676.019 164.558 676.436 Q162.707 676.852 160.762 677.732 L160.762 660.371 Z" fill="#000000" fill-rule="nonzero" fill-opacity="1" /><path clip-path="url(#clip050)" d="M200.878 663.45 Q197.267 663.45 195.438 667.014 Q193.632 670.556 193.632 677.686 Q193.632 684.792 195.438 688.357 Q197.267 691.899 200.878 691.899 Q204.512 691.899 206.317 688.357 Q208.146 684.792 208.146 677.686 Q208.146 670.556 206.317 667.014 Q204.512 663.45 200.878 663.45 M200.878 659.746 Q206.688 659.746 209.743 664.352 Q212.822 668.936 212.822 677.686 Q212.822 686.412 209.743 691.019 Q206.688 695.602 200.878 695.602 Q195.067 695.602 191.989 691.019 Q188.933 686.412 188.933 677.686 Q188.933 668.936 191.989 664.352 Q195.067 659.746 200.878 659.746 Z" fill="#000000" fill-rule="nonzero" fill-opacity="1" /><path clip-path="url(#clip050)" d="M126.48 400.748 Q122.869 400.748 121.04 404.313 Q119.235 407.854 119.235 414.984 Q119.235 422.09 121.04 425.655 Q122.869 429.197 126.48 429.197 Q130.114 429.197 131.92 425.655 Q133.748 422.09 133.748 414.984 Q133.748 407.854 131.92 404.313 Q130.114 400.748 126.48 400.748 M126.48 397.044 Q132.29 397.044 135.346 401.651 Q138.424 406.234 138.424 414.984 Q138.424 423.711 135.346 428.317 Q132.29 432.9 126.48 432.9 Q120.67 432.9 117.591 428.317 Q114.536 423.711 114.536 414.984 Q114.536 406.234 117.591 401.651 Q120.67 397.044 126.48 397.044 Z" fill="#000000" fill-rule="nonzero" fill-opacity="1" /><path clip-path="url(#clip050)" d="M146.642 426.349 L151.526 426.349 L151.526 432.229 L146.642 432.229 L146.642 426.349 Z" fill="#000000" fill-rule="nonzero" fill-opacity="1" /><path clip-path="url(#clip050)" d="M160.531 397.669 L182.753 397.669 L182.753 399.66 L170.207 432.229 L165.322 432.229 L177.128 401.604 L160.531 401.604 L160.531 397.669 Z" fill="#000000" fill-rule="nonzero" fill-opacity="1" /><path clip-path="url(#clip050)" d="M191.919 397.669 L210.276 397.669 L210.276 401.604 L196.202 401.604 L196.202 410.076 Q197.22 409.729 198.239 409.567 Q199.257 409.382 200.276 409.382 Q206.063 409.382 209.442 412.553 Q212.822 415.725 212.822 421.141 Q212.822 426.72 209.35 429.822 Q205.878 432.9 199.558 432.9 Q197.382 432.9 195.114 432.53 Q192.868 432.16 190.461 431.419 L190.461 426.72 Q192.544 427.854 194.767 428.41 Q196.989 428.965 199.466 428.965 Q203.47 428.965 205.808 426.859 Q208.146 424.752 208.146 421.141 Q208.146 417.53 205.808 415.424 Q203.47 413.317 199.466 413.317 Q197.591 413.317 195.716 413.734 Q193.864 414.15 191.919 415.03 L191.919 397.669 Z" fill="#000000" fill-rule="nonzero" fill-opacity="1" /><path clip-path="url(#clip050)" d="M116.295 165.592 L123.934 165.592 L123.934 139.226 L115.623 140.893 L115.623 136.634 L123.887 134.967 L128.563 134.967 L128.563 165.592 L136.202 165.592 L136.202 169.527 L116.295 169.527 L116.295 165.592 Z" fill="#000000" fill-rule="nonzero" fill-opacity="1" /><path clip-path="url(#clip050)" d="M145.646 163.648 L150.531 163.648 L150.531 169.527 L145.646 169.527 L145.646 163.648 Z" fill="#000000" fill-rule="nonzero" fill-opacity="1" /><path clip-path="url(#clip050)" d="M170.716 138.046 Q167.105 138.046 165.276 141.611 Q163.47 145.152 163.47 152.282 Q163.47 159.388 165.276 162.953 Q167.105 166.495 170.716 166.495 Q174.35 166.495 176.156 162.953 Q177.984 159.388 177.984 152.282 Q177.984 145.152 176.156 141.611 Q174.35 138.046 170.716 138.046 M170.716 134.342 Q176.526 134.342 179.581 138.949 Q182.66 143.532 182.66 152.282 Q182.66 161.009 179.581 165.615 Q176.526 170.199 170.716 170.199 Q164.906 170.199 161.827 165.615 Q158.771 161.009 158.771 152.282 Q158.771 143.532 161.827 138.949 Q164.906 134.342 170.716 134.342 Z" fill="#000000" fill-rule="nonzero" fill-opacity="1" /><path clip-path="url(#clip050)" d="M200.878 138.046 Q197.267 138.046 195.438 141.611 Q193.632 145.152 193.632 152.282 Q193.632 159.388 195.438 162.953 Q197.267 166.495 200.878 166.495 Q204.512 166.495 206.317 162.953 Q208.146 159.388 208.146 152.282 Q208.146 145.152 206.317 141.611 Q204.512 138.046 200.878 138.046 M200.878 134.342 Q206.688 134.342 209.743 138.949 Q212.822 143.532 212.822 152.282 Q212.822 161.009 209.743 165.615 Q206.688 170.199 200.878 170.199 Q195.067 170.199 191.989 165.615 Q188.933 161.009 188.933 152.282 Q188.933 143.532 191.989 138.949 Q195.067 134.342 200.878 134.342 Z" fill="#000000" fill-rule="nonzero" fill-opacity="1" /><path clip-path="url(#clip050)" d="M20.0842 925.516 L20.0842 919.023 L60.2518 909.028 L20.0842 899.066 L20.0842 891.841 L60.2518 881.847 L20.0842 871.885 L20.0842 865.36 L67.6042 877.295 L67.6042 885.38 L26.3544 895.406 L67.6042 905.527 L67.6042 913.612 L20.0842 925.516 Z" fill="#000000" fill-rule="nonzero" fill-opacity="1" /><path clip-path="url(#clip050)" d="M49.6847 845.053 Q49.6847 852.151 51.3079 854.888 Q52.9312 857.625 56.8461 857.625 Q59.9653 857.625 61.8114 855.588 Q63.6256 853.519 63.6256 849.987 Q63.6256 845.117 60.1881 842.189 Q56.7188 839.228 50.9897 839.228 L49.6847 839.228 L49.6847 845.053 M47.2657 833.372 L67.6042 833.372 L67.6042 839.228 L62.1933 839.228 Q65.4398 841.234 66.9994 844.226 Q68.5272 847.217 68.5272 851.546 Q68.5272 857.021 65.4716 860.267 Q62.3843 863.482 57.2281 863.482 Q51.2125 863.482 48.1569 859.471 Q45.1014 855.429 45.1014 847.44 L45.1014 839.228 L44.5285 839.228 Q40.4862 839.228 38.2901 841.902 Q36.0621 844.544 36.0621 849.35 Q36.0621 852.405 36.7941 855.302 Q37.5262 858.198 38.9903 860.872 L33.5795 860.872 Q32.3381 857.657 31.7334 854.633 Q31.0968 851.61 31.0968 848.745 Q31.0968 841.011 35.1072 837.191 Q39.1176 833.372 47.2657 833.372 Z" fill="#000000" fill-rule="nonzero" fill-opacity="1" /><path clip-path="url(#clip050)" d="M21.8347 815.516 L31.9562 815.516 L31.9562 803.453 L36.5077 803.453 L36.5077 815.516 L55.8594 815.516 Q60.2199 815.516 61.4613 814.339 Q62.7026 813.129 62.7026 809.469 L62.7026 803.453 L67.6042 803.453 L67.6042 809.469 Q67.6042 816.248 65.0897 818.826 Q62.5434 821.404 55.8594 821.404 L36.5077 821.404 L36.5077 825.701 L31.9562 825.701 L31.9562 821.404 L21.8347 821.404 L21.8347 815.516 Z" fill="#000000" fill-rule="nonzero" fill-opacity="1" /><path clip-path="url(#clip050)" d="M48.3161 765.259 L51.1806 765.259 L51.1806 792.186 Q57.2281 791.804 60.4109 788.557 Q63.5619 785.279 63.5619 779.454 Q63.5619 776.081 62.7344 772.93 Q61.9069 769.747 60.2518 766.628 L65.7899 766.628 Q67.1267 769.779 67.827 773.089 Q68.5272 776.399 68.5272 779.805 Q68.5272 788.335 63.5619 793.332 Q58.5967 798.297 50.1303 798.297 Q41.3774 798.297 36.2531 793.586 Q31.0968 788.844 31.0968 780.823 Q31.0968 773.63 35.7438 769.46 Q40.3589 765.259 48.3161 765.259 M46.5973 771.115 Q41.7912 771.179 38.9266 773.821 Q36.0621 776.431 36.0621 780.759 Q36.0621 785.661 38.8312 788.621 Q41.6002 791.549 46.6292 791.995 L46.5973 771.115 Z" fill="#000000" fill-rule="nonzero" fill-opacity="1" /><path clip-path="url(#clip050)" d="M37.4307 734.99 Q36.8578 735.977 36.6032 737.154 Q36.3167 738.3 36.3167 739.701 Q36.3167 744.666 39.5632 747.339 Q42.7779 749.981 48.8253 749.981 L67.6042 749.981 L67.6042 755.87 L31.9562 755.87 L31.9562 749.981 L37.4944 749.981 Q34.2479 748.135 32.6883 745.175 Q31.0968 742.215 31.0968 737.982 Q31.0968 737.377 31.1923 736.645 Q31.256 735.913 31.4151 735.022 L37.4307 734.99 Z" fill="#000000" fill-rule="nonzero" fill-opacity="1" /><path clip-path="url(#clip050)" d="M18.079 708.127 L18.079 702.27 L67.6042 702.27 L67.6042 708.127 L18.079 708.127 Z" fill="#000000" fill-rule="nonzero" fill-opacity="1" /><path clip-path="url(#clip050)" d="M48.3161 659.525 L51.1806 659.525 L51.1806 686.451 Q57.2281 686.07 60.4109 682.823 Q63.5619 679.545 63.5619 673.72 Q63.5619 670.346 62.7344 667.195 Q61.9069 664.012 60.2518 660.893 L65.7899 660.893 Q67.1267 664.044 67.827 667.354 Q68.5272 670.665 68.5272 674.07 Q68.5272 682.6 63.5619 687.597 Q58.5967 692.563 50.1303 692.563 Q41.3774 692.563 36.2531 687.852 Q31.0968 683.11 31.0968 675.089 Q31.0968 667.895 35.7438 663.726 Q40.3589 659.525 48.3161 659.525 M46.5973 665.381 Q41.7912 665.445 38.9266 668.086 Q36.0621 670.696 36.0621 675.025 Q36.0621 679.927 38.8312 682.887 Q41.6002 685.815 46.6292 686.261 L46.5973 665.381 Z" fill="#000000" fill-rule="nonzero" fill-opacity="1" /><path clip-path="url(#clip050)" d="M31.9562 654.114 L31.9562 647.907 L61.875 636.767 L31.9562 625.627 L31.9562 619.421 L67.6042 632.789 L67.6042 640.746 L31.9562 654.114 Z" fill="#000000" fill-rule="nonzero" fill-opacity="1" /><path clip-path="url(#clip050)" d="M48.3161 580.844 L51.1806 580.844 L51.1806 607.771 Q57.2281 607.389 60.4109 604.143 Q63.5619 600.865 63.5619 595.04 Q63.5619 591.666 62.7344 588.515 Q61.9069 585.332 60.2518 582.213 L65.7899 582.213 Q67.1267 585.364 67.827 588.674 Q68.5272 591.984 68.5272 595.39 Q68.5272 603.92 63.5619 608.917 Q58.5967 613.882 50.1303 613.882 Q41.3774 613.882 36.2531 609.172 Q31.0968 604.429 31.0968 596.409 Q31.0968 589.215 35.7438 585.046 Q40.3589 580.844 48.3161 580.844 M46.5973 586.701 Q41.7912 586.765 38.9266 589.406 Q36.0621 592.016 36.0621 596.345 Q36.0621 601.247 38.8312 604.207 Q41.6002 607.135 46.6292 607.58 L46.5973 586.701 Z" fill="#000000" fill-rule="nonzero" fill-opacity="1" /><path clip-path="url(#clip050)" d="M18.079 571.232 L18.079 565.376 L67.6042 565.376 L67.6042 571.232 L18.079 571.232 Z" fill="#000000" fill-rule="nonzero" fill-opacity="1" /><path clip-path="url(#clip050)" d="M18.1426 518.333 Q25.4632 522.598 32.6246 524.667 Q39.786 526.736 47.1384 526.736 Q54.4908 526.736 61.7159 524.667 Q68.9091 522.566 76.1979 518.333 L76.1979 523.426 Q68.7182 528.2 61.4931 530.587 Q54.268 532.942 47.1384 532.942 Q40.0406 532.942 32.8474 530.587 Q25.6542 528.232 18.1426 523.426 L18.1426 518.333 Z" fill="#000000" fill-rule="nonzero" fill-opacity="1" /><path clip-path="url(#clip050)" d="M38.7993 479.216 Q34.8526 477.02 32.9747 473.964 Q31.0968 470.909 31.0968 466.771 Q31.0968 461.201 35.0117 458.177 Q38.8948 455.154 46.0881 455.154 L67.6042 455.154 L67.6042 461.042 L46.279 461.042 Q41.1546 461.042 38.672 462.856 Q36.1894 464.67 36.1894 468.394 Q36.1894 472.946 39.2131 475.587 Q42.2368 478.229 47.4567 478.229 L67.6042 478.229 L67.6042 484.118 L46.279 484.118 Q41.1228 484.118 38.672 485.932 Q36.1894 487.746 36.1894 491.534 Q36.1894 496.021 39.2449 498.663 Q42.2686 501.305 47.4567 501.305 L67.6042 501.305 L67.6042 507.193 L31.9562 507.193 L31.9562 501.305 L37.4944 501.305 Q34.216 499.3 32.6564 496.499 Q31.0968 493.698 31.0968 489.847 Q31.0968 485.964 33.0702 483.258 Q35.0436 480.521 38.7993 479.216 Z" fill="#000000" fill-rule="nonzero" fill-opacity="1" /><path clip-path="url(#clip050)" d="M18.1426 444.396 L18.1426 439.303 Q25.6542 434.529 32.8474 432.173 Q40.0406 429.786 47.1384 429.786 Q54.268 429.786 61.4931 432.173 Q68.7182 434.529 76.1979 439.303 L76.1979 444.396 Q68.9091 440.162 61.7159 438.093 Q54.4908 435.993 47.1384 435.993 Q39.786 435.993 32.6246 438.093 Q25.4632 440.162 18.1426 444.396 Z" fill="#000000" fill-rule="nonzero" fill-opacity="1" /><path clip-path="url(#clip050)" d="M479.627 12.096 L487.891 12.096 L500.61 63.2184 L513.29 12.096 L522.485 12.096 L535.205 63.2184 L547.885 12.096 L556.189 12.096 L540.998 72.576 L530.709 72.576 L517.948 20.0763 L505.066 72.576 L494.777 72.576 L479.627 12.096 Z" fill="#000000" fill-rule="nonzero" fill-opacity="1" /><path clip-path="url(#clip050)" d="M582.034 49.7694 Q573 49.7694 569.516 51.8354 Q566.033 53.9013 566.033 58.8839 Q566.033 62.8538 568.625 65.2034 Q571.258 67.5124 575.755 67.5124 Q581.953 67.5124 585.679 63.1374 Q589.447 58.7219 589.447 51.4303 L589.447 49.7694 L582.034 49.7694 M596.9 46.6907 L596.9 72.576 L589.447 72.576 L589.447 65.6895 Q586.895 69.8214 583.087 71.8063 Q579.279 73.7508 573.77 73.7508 Q566.802 73.7508 562.67 69.8619 Q558.579 65.9325 558.579 59.3701 Q558.579 51.7138 563.683 47.825 Q568.828 43.9361 578.995 43.9361 L589.447 43.9361 L589.447 43.2069 Q589.447 38.0623 586.044 35.2672 Q582.682 32.4315 576.565 32.4315 Q572.676 32.4315 568.99 33.3632 Q565.303 34.295 561.901 36.1584 L561.901 29.2718 Q565.992 27.692 569.84 26.9223 Q573.689 26.1121 577.335 26.1121 Q587.178 26.1121 592.039 31.2163 Q596.9 36.3204 596.9 46.6907 Z" fill="#000000" fill-rule="nonzero" fill-opacity="1" /><path clip-path="url(#clip050)" d="M619.626 14.324 L619.626 27.2059 L634.979 27.2059 L634.979 32.9987 L619.626 32.9987 L619.626 57.6282 Q619.626 63.1779 621.125 64.7578 Q622.664 66.3376 627.323 66.3376 L634.979 66.3376 L634.979 72.576 L627.323 72.576 Q618.694 72.576 615.413 69.3758 Q612.132 66.1351 612.132 57.6282 L612.132 32.9987 L606.663 32.9987 L606.663 27.2059 L612.132 27.2059 L612.132 14.324 L619.626 14.324 Z" fill="#000000" fill-rule="nonzero" fill-opacity="1" /><path clip-path="url(#clip050)" d="M683.59 48.0275 L683.59 51.6733 L649.319 51.6733 Q649.805 59.3701 653.937 63.421 Q658.11 67.4314 665.523 67.4314 Q669.817 67.4314 673.827 66.3781 Q677.878 65.3249 681.848 63.2184 L681.848 70.267 Q677.838 71.9684 673.625 72.8596 Q669.412 73.7508 665.077 73.7508 Q654.221 73.7508 647.861 67.4314 Q641.541 61.1119 641.541 50.3365 Q641.541 39.1965 647.537 32.6746 Q653.573 26.1121 663.781 26.1121 Q672.936 26.1121 678.243 32.0264 Q683.59 37.9003 683.59 48.0275 M676.136 45.84 Q676.055 39.7232 672.693 36.0774 Q669.371 32.4315 663.862 32.4315 Q657.624 32.4315 653.856 35.9558 Q650.129 39.4801 649.562 45.8805 L676.136 45.84 Z" fill="#000000" fill-rule="nonzero" fill-opacity="1" /><path clip-path="url(#clip050)" d="M722.114 34.1734 Q720.858 33.4443 719.359 33.1202 Q717.901 32.7556 716.119 32.7556 Q709.799 32.7556 706.396 36.8875 Q703.034 40.9789 703.034 48.6757 L703.034 72.576 L695.54 72.576 L695.54 27.2059 L703.034 27.2059 L703.034 34.2544 Q705.384 30.1225 709.151 28.1376 Q712.918 26.1121 718.306 26.1121 Q719.076 26.1121 720.007 26.2337 Q720.939 26.3147 722.073 26.5172 L722.114 34.1734 Z" fill="#000000" fill-rule="nonzero" fill-opacity="1" /><path clip-path="url(#clip050)" d="M756.304 9.54393 L763.757 9.54393 L763.757 72.576 L756.304 72.576 L756.304 9.54393 Z" fill="#000000" fill-rule="nonzero" fill-opacity="1" /><path clip-path="url(#clip050)" d="M818.161 48.0275 L818.161 51.6733 L783.89 51.6733 Q784.376 59.3701 788.508 63.421 Q792.681 67.4314 800.094 67.4314 Q804.388 67.4314 808.398 66.3781 Q812.449 65.3249 816.419 63.2184 L816.419 70.267 Q812.409 71.9684 808.196 72.8596 Q803.983 73.7508 799.648 73.7508 Q788.792 73.7508 782.432 67.4314 Q776.112 61.1119 776.112 50.3365 Q776.112 39.1965 782.108 32.6746 Q788.144 26.1121 798.352 26.1121 Q807.507 26.1121 812.814 32.0264 Q818.161 37.9003 818.161 48.0275 M810.707 45.84 Q810.626 39.7232 807.264 36.0774 Q803.942 32.4315 798.433 32.4315 Q792.195 32.4315 788.427 35.9558 Q784.7 39.4801 784.133 45.8805 L810.707 45.84 Z" fill="#000000" fill-rule="nonzero" fill-opacity="1" /><path clip-path="url(#clip050)" d="M825.047 27.2059 L832.947 27.2059 L847.125 65.2844 L861.303 27.2059 L869.202 27.2059 L852.188 72.576 L842.061 72.576 L825.047 27.2059 Z" fill="#000000" fill-rule="nonzero" fill-opacity="1" /><path clip-path="url(#clip050)" d="M918.299 48.0275 L918.299 51.6733 L884.029 51.6733 Q884.515 59.3701 888.647 63.421 Q892.819 67.4314 900.232 67.4314 Q904.526 67.4314 908.537 66.3781 Q912.587 65.3249 916.557 63.2184 L916.557 70.267 Q912.547 71.9684 908.334 72.8596 Q904.121 73.7508 899.787 73.7508 Q888.93 73.7508 882.57 67.4314 Q876.251 61.1119 876.251 50.3365 Q876.251 39.1965 882.246 32.6746 Q888.282 26.1121 898.49 26.1121 Q907.645 26.1121 912.952 32.0264 Q918.299 37.9003 918.299 48.0275 M910.846 45.84 Q910.765 39.7232 907.402 36.0774 Q904.081 32.4315 898.571 32.4315 Q892.333 32.4315 888.566 35.9558 Q884.839 39.4801 884.272 45.8805 L910.846 45.84 Z" fill="#000000" fill-rule="nonzero" fill-opacity="1" /><path clip-path="url(#clip050)" d="M930.533 9.54393 L937.987 9.54393 L937.987 72.576 L930.533 72.576 L930.533 9.54393 Z" fill="#000000" fill-rule="nonzero" fill-opacity="1" /><path clip-path="url(#clip050)" d="M982.506 28.5427 L982.506 35.5912 Q979.346 33.9709 975.944 33.1607 Q972.541 32.3505 968.895 32.3505 Q963.345 32.3505 960.55 34.0519 Q957.796 35.7533 957.796 39.156 Q957.796 41.7486 959.78 43.2475 Q961.765 44.7058 967.761 46.0426 L970.313 46.6097 Q978.253 48.3111 981.574 51.4303 Q984.937 54.509 984.937 60.0587 Q984.937 66.3781 979.913 70.0644 Q974.931 73.7508 966.181 73.7508 Q962.535 73.7508 958.565 73.0216 Q954.636 72.3329 950.261 70.9151 L950.261 63.2184 Q954.393 65.3654 958.403 66.4591 Q962.414 67.5124 966.343 67.5124 Q971.609 67.5124 974.445 65.73 Q977.28 63.9071 977.28 60.6258 Q977.28 57.5877 975.214 55.9673 Q973.189 54.3469 966.262 52.8481 L963.669 52.2405 Q956.742 50.7821 953.664 47.7845 Q950.585 44.7463 950.585 39.4801 Q950.585 33.0797 955.122 29.5959 Q959.659 26.1121 968.004 26.1121 Q972.136 26.1121 975.782 26.7198 Q979.427 27.3274 982.506 28.5427 Z" fill="#000000" fill-rule="nonzero" fill-opacity="1" /><path clip-path="url(#clip050)" d="M1043.8 49.7694 Q1034.76 49.7694 1031.28 51.8354 Q1027.8 53.9013 1027.8 58.8839 Q1027.8 62.8538 1030.39 65.2034 Q1033.02 67.5124 1037.52 67.5124 Q1043.72 67.5124 1047.44 63.1374 Q1051.21 58.7219 1051.21 51.4303 L1051.21 49.7694 L1043.8 49.7694 M1058.66 46.6907 L1058.66 72.576 L1051.21 72.576 L1051.21 65.6895 Q1048.66 69.8214 1044.85 71.8063 Q1041.04 73.7508 1035.53 73.7508 Q1028.56 73.7508 1024.43 69.8619 Q1020.34 65.9325 1020.34 59.3701 Q1020.34 51.7138 1025.45 47.825 Q1030.59 43.9361 1040.76 43.9361 L1051.21 43.9361 L1051.21 43.2069 Q1051.21 38.0623 1047.81 35.2672 Q1044.44 32.4315 1038.33 32.4315 Q1034.44 32.4315 1030.75 33.3632 Q1027.07 34.295 1023.66 36.1584 L1023.66 29.2718 Q1027.75 27.692 1031.6 26.9223 Q1035.45 26.1121 1039.1 26.1121 Q1048.94 26.1121 1053.8 31.2163 Q1058.66 36.3204 1058.66 46.6907 Z" fill="#000000" fill-rule="nonzero" fill-opacity="1" /><path clip-path="url(#clip050)" d="M1081.39 14.324 L1081.39 27.2059 L1096.74 27.2059 L1096.74 32.9987 L1081.39 32.9987 L1081.39 57.6282 Q1081.39 63.1779 1082.89 64.7578 Q1084.43 66.3376 1089.09 66.3376 L1096.74 66.3376 L1096.74 72.576 L1089.09 72.576 Q1080.46 72.576 1077.18 69.3758 Q1073.89 66.1351 1073.89 57.6282 L1073.89 32.9987 L1068.43 32.9987 L1068.43 27.2059 L1073.89 27.2059 L1073.89 14.324 L1081.39 14.324 Z" fill="#000000" fill-rule="nonzero" fill-opacity="1" /><path clip-path="url(#clip050)" d="M1169.5 14.0809 L1169.5 22.0612 Q1164.84 19.8332 1160.71 18.7395 Q1156.57 17.6457 1152.73 17.6457 Q1146.04 17.6457 1142.4 20.2383 Q1138.79 22.8309 1138.79 27.611 Q1138.79 31.6214 1141.18 33.6873 Q1143.61 35.7128 1150.34 36.9686 L1155.28 37.9813 Q1164.43 39.7232 1168.77 44.1387 Q1173.14 48.5136 1173.14 55.8863 Q1173.14 64.6767 1167.23 69.2137 Q1161.35 73.7508 1149.97 73.7508 Q1145.68 73.7508 1140.82 72.7785 Q1135.99 71.8063 1130.81 69.9024 L1130.81 61.4765 Q1135.79 64.2716 1140.57 65.6895 Q1145.35 67.1073 1149.97 67.1073 Q1156.98 67.1073 1160.79 64.3527 Q1164.59 61.598 1164.59 56.4939 Q1164.59 52.0379 1161.84 49.5264 Q1159.13 47.0148 1152.89 45.759 L1147.9 44.7868 Q1138.75 42.9639 1134.66 39.075 Q1130.57 35.1862 1130.57 28.2591 Q1130.57 20.2383 1136.2 15.6203 Q1141.87 11.0023 1151.79 11.0023 Q1156.05 11.0023 1160.46 11.7719 Q1164.88 12.5416 1169.5 14.0809 Z" fill="#000000" fill-rule="nonzero" fill-opacity="1" /><path clip-path="url(#clip050)" d="M1224.39 48.0275 L1224.39 51.6733 L1190.11 51.6733 Q1190.6 59.3701 1194.73 63.421 Q1198.91 67.4314 1206.32 67.4314 Q1210.61 67.4314 1214.62 66.3781 Q1218.67 65.3249 1222.64 63.2184 L1222.64 70.267 Q1218.63 71.9684 1214.42 72.8596 Q1210.21 73.7508 1205.87 73.7508 Q1195.02 73.7508 1188.66 67.4314 Q1182.34 61.1119 1182.34 50.3365 Q1182.34 39.1965 1188.33 32.6746 Q1194.37 26.1121 1204.58 26.1121 Q1213.73 26.1121 1219.04 32.0264 Q1224.39 37.9003 1224.39 48.0275 M1216.93 45.84 Q1216.85 39.7232 1213.49 36.0774 Q1210.17 32.4315 1204.66 32.4315 Q1198.42 32.4315 1194.65 35.9558 Q1190.93 39.4801 1190.36 45.8805 L1216.93 45.84 Z" fill="#000000" fill-rule="nonzero" fill-opacity="1" /><path clip-path="url(#clip050)" d="M1232.28 27.2059 L1239.74 27.2059 L1249.06 62.6108 L1258.33 27.2059 L1267.12 27.2059 L1276.44 62.6108 L1285.72 27.2059 L1293.17 27.2059 L1281.3 72.576 L1272.51 72.576 L1262.75 35.3887 L1252.94 72.576 L1244.15 72.576 L1232.28 27.2059 Z" fill="#000000" fill-rule="nonzero" fill-opacity="1" /><path clip-path="url(#clip050)" d="M1343.28 48.0275 L1343.28 51.6733 L1309.01 51.6733 Q1309.5 59.3701 1313.63 63.421 Q1317.8 67.4314 1325.21 67.4314 Q1329.51 67.4314 1333.52 66.3781 Q1337.57 65.3249 1341.54 63.2184 L1341.54 70.267 Q1337.53 71.9684 1333.31 72.8596 Q1329.1 73.7508 1324.77 73.7508 Q1313.91 73.7508 1307.55 67.4314 Q1301.23 61.1119 1301.23 50.3365 Q1301.23 39.1965 1307.23 32.6746 Q1313.26 26.1121 1323.47 26.1121 Q1332.63 26.1121 1337.93 32.0264 Q1343.28 37.9003 1343.28 48.0275 M1335.83 45.84 Q1335.74 39.7232 1332.38 36.0774 Q1329.06 32.4315 1323.55 32.4315 Q1317.31 32.4315 1313.55 35.9558 Q1309.82 39.4801 1309.25 45.8805 L1335.83 45.84 Z" fill="#000000" fill-rule="nonzero" fill-opacity="1" /><path clip-path="url(#clip050)" d="M1355.51 9.54393 L1362.97 9.54393 L1362.97 72.576 L1355.51 72.576 L1355.51 9.54393 Z" fill="#000000" fill-rule="nonzero" fill-opacity="1" /><path clip-path="url(#clip050)" d="M1378.56 9.54393 L1386.02 9.54393 L1386.02 72.576 L1378.56 72.576 L1378.56 9.54393 Z" fill="#000000" fill-rule="nonzero" fill-opacity="1" /><path clip-path="url(#clip050)" d="M1430.54 28.5427 L1430.54 35.5912 Q1427.38 33.9709 1423.97 33.1607 Q1420.57 32.3505 1416.93 32.3505 Q1411.38 32.3505 1408.58 34.0519 Q1405.83 35.7533 1405.83 39.156 Q1405.83 41.7486 1407.81 43.2475 Q1409.8 44.7058 1415.79 46.0426 L1418.34 46.6097 Q1426.28 48.3111 1429.6 51.4303 Q1432.97 54.509 1432.97 60.0587 Q1432.97 66.3781 1427.94 70.0644 Q1422.96 73.7508 1414.21 73.7508 Q1410.57 73.7508 1406.6 73.0216 Q1402.67 72.3329 1398.29 70.9151 L1398.29 63.2184 Q1402.42 65.3654 1406.43 66.4591 Q1410.44 67.5124 1414.37 67.5124 Q1419.64 67.5124 1422.47 65.73 Q1425.31 63.9071 1425.31 60.6258 Q1425.31 57.5877 1423.24 55.9673 Q1421.22 54.3469 1414.29 52.8481 L1411.7 52.2405 Q1404.77 50.7821 1401.69 47.7845 Q1398.61 44.7463 1398.61 39.4801 Q1398.61 33.0797 1403.15 29.5959 Q1407.69 26.1121 1416.03 26.1121 Q1420.17 26.1121 1423.81 26.7198 Q1427.46 27.3274 1430.54 28.5427 Z" fill="#000000" fill-rule="nonzero" fill-opacity="1" /><path clip-path="url(#clip050)" d="M1479.71 18.8205 L1479.71 41.5461 L1490 41.5461 Q1495.72 41.5461 1498.83 38.5889 Q1501.95 35.6318 1501.95 30.163 Q1501.95 24.7348 1498.83 21.7777 Q1495.72 18.8205 1490 18.8205 L1479.71 18.8205 M1471.53 12.096 L1490 12.096 Q1500.17 12.096 1505.36 16.714 Q1510.58 21.2916 1510.58 30.163 Q1510.58 39.1155 1505.36 43.6931 Q1500.17 48.2706 1490 48.2706 L1479.71 48.2706 L1479.71 72.576 L1471.53 72.576 L1471.53 12.096 Z" fill="#000000" fill-rule="nonzero" fill-opacity="1" /><path clip-path="url(#clip050)" d="M1535.86 32.4315 Q1529.86 32.4315 1526.38 37.1306 Q1522.9 41.7891 1522.9 49.9314 Q1522.9 58.0738 1526.34 62.7728 Q1529.82 67.4314 1535.86 67.4314 Q1541.81 67.4314 1545.3 62.7323 Q1548.78 58.0333 1548.78 49.9314 Q1548.78 41.8701 1545.3 37.1711 Q1541.81 32.4315 1535.86 32.4315 M1535.86 26.1121 Q1545.58 26.1121 1551.13 32.4315 Q1556.68 38.7509 1556.68 49.9314 Q1556.68 61.0714 1551.13 67.4314 Q1545.58 73.7508 1535.86 73.7508 Q1526.1 73.7508 1520.55 67.4314 Q1515.04 61.0714 1515.04 49.9314 Q1515.04 38.7509 1520.55 32.4315 Q1526.1 26.1121 1535.86 26.1121 Z" fill="#000000" fill-rule="nonzero" fill-opacity="1" /><path clip-path="url(#clip050)" d="M1569.04 27.2059 L1576.49 27.2059 L1576.49 72.576 L1569.04 72.576 L1569.04 27.2059 M1569.04 9.54393 L1576.49 9.54393 L1576.49 18.9825 L1569.04 18.9825 L1569.04 9.54393 Z" fill="#000000" fill-rule="nonzero" fill-opacity="1" /><path clip-path="url(#clip050)" d="M1629.8 45.1919 L1629.8 72.576 L1622.35 72.576 L1622.35 45.4349 Q1622.35 38.994 1619.83 35.7938 Q1617.32 32.5936 1612.3 32.5936 Q1606.26 32.5936 1602.78 36.4419 Q1599.3 40.2903 1599.3 46.9338 L1599.3 72.576 L1591.8 72.576 L1591.8 27.2059 L1599.3 27.2059 L1599.3 34.2544 Q1601.97 30.163 1605.58 28.1376 Q1609.22 26.1121 1613.96 26.1121 Q1621.78 26.1121 1625.79 30.9732 Q1629.8 35.7938 1629.8 45.1919 Z" fill="#000000" fill-rule="nonzero" fill-opacity="1" /><path clip-path="url(#clip050)" d="M1652.04 14.324 L1652.04 27.2059 L1667.39 27.2059 L1667.39 32.9987 L1652.04 32.9987 L1652.04 57.6282 Q1652.04 63.1779 1653.54 64.7578 Q1655.08 66.3376 1659.74 66.3376 L1667.39 66.3376 L1667.39 72.576 L1659.74 72.576 Q1651.11 72.576 1647.83 69.3758 Q1644.55 66.1351 1644.55 57.6282 L1644.55 32.9987 L1639.08 32.9987 L1639.08 27.2059 L1644.55 27.2059 L1644.55 14.324 L1652.04 14.324 Z" fill="#000000" fill-rule="nonzero" fill-opacity="1" /><path clip-path="url(#clip050)" d="M1679.1 62.2867 L1687.65 62.2867 L1687.65 69.2543 L1681 82.2172 L1675.78 82.2172 L1679.1 69.2543 L1679.1 62.2867 Z" fill="#000000" fill-rule="nonzero" fill-opacity="1" /><path clip-path="url(#clip050)" d="M1745.86 72.576 L1722.77 12.096 L1731.32 12.096 L1750.48 63.0159 L1769.68 12.096 L1778.18 12.096 L1755.14 72.576 L1745.86 72.576 Z" fill="#000000" fill-rule="nonzero" fill-opacity="1" /><path clip-path="url(#clip050)" d="M1801.92 20.1573 L1790.82 50.2555 L1813.06 50.2555 L1801.92 20.1573 M1797.3 12.096 L1806.58 12.096 L1829.63 72.576 L1821.12 72.576 L1815.62 57.061 L1788.35 57.061 L1782.84 72.576 L1774.21 72.576 L1797.3 12.096 Z" fill="#000000" fill-rule="nonzero" fill-opacity="1" /></svg>
